<svg width="40" height="40" viewBox="0 0 40 40" fill="none" xmlns="http://www.w3.org/2000/svg">
<path d="M20 10C19.5581 10 19.2001 10.3581 19.2001 10.7999V19.2001H10.7999C10.3581 19.2001 10 19.5582 10 20C10 20.4418 10.3581 20.7999 10.7999 20.7999H19.2001V29.2001C19.2001 29.6419 19.5582 30 20 30C20.4418 30 20.7999 29.6419 20.7999 29.2001V20.7999H29.2001C29.6419 20.7999 30 20.4418 30 20C30 19.5582 29.6419 19.2001 29.2001 19.2001H20.7999V10.7999C20.7999 10.3581 20.4418 10 20 10Z" fill="black"/>
</svg>
