<svg width="100" height="100" viewBox="0 0 100 100" fill="none" xmlns="http://www.w3.org/2000/svg">
<circle cx="50" cy="50" r="50" fill="white"/>
<path d="M50 8C73.196 8 92 26.804 92 50C92 73.196 73.196 92 50 92C26.804 92 8 73.196 8 50C8 26.804 26.804 8 50 8ZM50 10C27.9086 10 10 27.9086 10 50C10 72.0914 27.9086 90 50 90C72.0914 90 90 72.0914 90 50C90 27.9086 72.0914 10 50 10ZM50 13C70.4345 13 87 29.5655 87 50C87 70.4345 70.4345 87 50 87C29.5655 87 13 70.4345 13 50C13 29.5655 29.5655 13 50 13ZM57.9717 67.8066C57.5086 67.8068 57.1035 68.1541 57.1035 68.6172C57.0457 69.1382 57.4509 69.5429 57.9141 69.543L59.3037 69.6016C57.0459 71.454 54.2085 72.438 51.1982 72.3223C47.8987 72.2062 44.8886 70.8168 42.6309 68.3857C42.3414 68.0385 41.7624 68.0378 41.415 68.3271C41.0677 68.6166 41.0101 69.1957 41.3574 69.543C43.9046 72.2637 47.3778 73.8852 51.1406 74.001H51.6621C54.9619 74.0009 58.0887 72.843 60.6357 70.7012L60.5771 72.2061C60.5193 72.727 60.9246 73.1327 61.3877 73.1328H61.4463C61.9091 73.1326 62.3142 72.7851 62.3145 72.3223L62.4883 68.79C62.4882 68.5586 62.4295 68.327 62.2559 68.1533C62.0824 67.9798 61.8508 67.9217 61.6191 67.9219L58.0303 67.8066H57.9717ZM39.4473 33.3027C34.9316 33.3027 31.2842 36.9504 31.2842 41.4658V46.4443H27.8682C27.4051 46.4445 27 46.8494 27 47.3125V60.6279C27.0001 63.6381 29.4898 66.127 32.5 66.127H46.3359C49.3462 66.127 51.8358 63.6381 51.8359 60.6279V57.3281H72.3291C72.7922 57.3281 73.198 56.923 73.1982 56.46L73.1973 36.9502C73.1973 36.4291 72.7923 36.082 72.3291 36.082H45.5254C44.0203 34.4032 41.8785 33.3029 39.4473 33.3027ZM50.0986 60.5703C50.0984 62.6542 48.4199 64.333 46.3359 64.333H32.5C30.4161 64.333 28.7375 62.6542 28.7373 60.5703V48.123H50.0986V60.5703ZM39.4473 51.0176C37.6527 51.0176 36.2051 52.4652 36.2051 54.2598C36.2051 55.7647 37.1889 56.9802 38.5781 57.3857V61.0908C38.5781 61.554 38.9841 61.959 39.4473 61.959C39.9103 61.9588 40.3154 61.5539 40.3154 61.0908V57.3857C41.647 56.9805 42.6884 55.7648 42.6885 54.2598C42.6306 52.4653 41.1839 51.0178 39.4473 51.0176ZM39.4473 52.7549C40.2577 52.7551 40.9521 53.4493 40.9521 54.2598C40.9521 55.0702 40.2575 55.7645 39.4473 55.7646C38.6368 55.7646 37.9414 55.0703 37.9414 54.2598C37.9414 53.4492 38.6367 52.7549 39.4473 52.7549ZM71.4609 55.5332H51.8359V52.3496H58.2617C58.7249 52.3496 59.1299 51.9437 59.1299 51.4805C59.1296 51.0174 58.7248 50.6123 58.2617 50.6123H51.8359V48.7021H54.6152C55.0782 48.7019 55.4833 48.297 55.4834 47.834C55.4834 47.3709 55.0783 46.9661 54.6152 46.9658H51.7783C51.6626 46.6186 51.315 46.3869 50.9678 46.3867H47.5518V41.4082C47.5518 40.0767 47.2046 38.8607 46.6836 37.7607H71.4609V55.5332ZM57.3936 47.0234C56.9303 47.0234 56.5254 47.4284 56.5254 47.8916C56.5254 48.3546 56.9303 48.7598 57.3936 48.7598H61.3301C61.7933 48.7598 62.1982 48.3548 62.1982 47.8916C62.1982 47.4284 61.7933 47.0234 61.3301 47.0234H57.3936ZM64.167 47.0234C63.7038 47.0234 63.2988 47.4284 63.2988 47.8916C63.2988 48.3548 63.7038 48.7598 64.167 48.7598H68.1035C68.5667 48.7598 68.9717 48.3548 68.9717 47.8916C68.9717 47.3705 68.5665 47.0234 68.1035 47.0234H64.167ZM39.4473 35.04C41.4733 35.0402 43.2101 35.9659 44.4258 37.4131C44.4258 37.4131 44.4256 37.4707 44.4834 37.4707C45.3518 38.5707 45.873 39.9607 45.873 41.4658V46.4443H44.7734V41.8125C44.7732 38.8603 42.3996 36.4874 39.4473 36.4873C36.495 36.4873 34.1213 38.8602 34.1211 41.8125V46.4443H33.0791V41.4658H33.0205C33.0205 37.9345 35.9158 35.04 39.4473 35.04ZM39.3887 38.166C41.357 38.166 42.9784 39.7868 42.9785 41.7549V46.3867H35.7998V41.7549C35.7999 39.7867 37.4207 38.1662 39.3887 38.166ZM66.7139 38.918C66.0193 38.918 65.2664 39.1506 64.6875 39.5557C64.1087 39.1506 63.4146 38.9181 62.6621 38.918C60.6937 38.918 59.1299 40.4818 59.1299 42.4502C59.1301 44.4184 60.6939 45.9814 62.6621 45.9814C63.3564 45.9813 64.1088 45.7496 64.6875 45.3447C65.2664 45.7498 65.9613 45.9814 66.7139 45.9814C68.6243 45.9814 70.2449 44.4184 70.2451 42.4502C70.2451 40.4818 68.6822 38.918 66.7139 38.918ZM66.6562 40.6553C67.6403 40.6553 68.4512 41.4661 68.4512 42.4502C68.4509 43.434 67.6402 44.2441 66.6562 44.2441C66.1353 44.2441 65.6727 44.0125 65.3252 43.6074C65.1515 43.4338 64.92 43.3185 64.6885 43.3184C64.457 43.3184 64.1676 43.4338 64.0518 43.6074C63.7044 44.0126 63.2408 44.2441 62.7197 44.2441C61.7358 44.2441 60.9251 43.434 60.9248 42.4502C60.9246 41.4661 61.6778 40.6553 62.6621 40.6553C63.183 40.6554 63.6457 40.8869 63.9932 41.292C64.3405 41.6972 64.9777 41.6972 65.3252 41.292C65.6724 40.8869 66.1353 40.6554 66.6562 40.6553ZM52.4727 26.0088C48.9414 25.8929 45.6415 27.0502 42.9785 29.25L43.0361 27.7451C43.0939 27.2241 42.6888 26.8193 42.2256 26.8193C41.7045 26.7615 41.2998 27.1667 41.2998 27.6299L41.126 31.1611C41.126 31.3926 41.1837 31.6242 41.3574 31.7979C41.5311 31.9714 41.7625 32.0293 41.9941 32.0869L45.584 32.2021H45.6416C46.1048 32.2021 46.5098 31.8548 46.5098 31.3916C46.5674 30.8707 46.1623 30.4658 45.6992 30.4658L44.3096 30.4082C46.5674 28.5558 49.4047 27.5718 52.415 27.6875C55.7147 27.8035 58.7246 29.1928 60.9824 31.624C61.156 31.7978 61.3885 31.9131 61.6201 31.9131C61.7938 31.913 62.0247 31.8551 62.1982 31.6816C62.5455 31.3922 62.604 30.8131 62.2568 30.4658C59.7096 27.745 56.2356 26.1245 52.4727 26.0088Z" fill="#008D47"/>
</svg>
