<svg width="100" height="100" viewBox="0 0 100 100" fill="none" xmlns="http://www.w3.org/2000/svg">
<circle cx="50" cy="50" r="50" fill="white"/>
<path d="M50 8C73.196 8 92 26.804 92 50C92 73.196 73.196 92 50 92C26.804 92 8 73.196 8 50C8 26.804 26.804 8 50 8ZM50 10C27.9086 10 10 27.9086 10 50C10 72.0914 27.9086 90 50 90C72.0914 90 90 72.0914 90 50C90 27.9086 72.0914 10 50 10ZM50 13C70.4345 13 87 29.5655 87 50C87 70.4345 70.4345 87 50 87C29.5655 87 13 70.4345 13 50C13 29.5655 29.5655 13 50 13ZM36.6924 49.1846C36.2376 49.1846 35.8692 49.553 35.8691 50.0078V53.6572C31.4606 54.0741 28 57.7935 28 62.3086C28 65.0526 29.3162 67.6636 31.5205 69.293C33.0224 70.4098 34.8119 71 36.6924 71C38.573 71 40.3606 70.4097 41.8584 69.2969C44.0648 67.6657 45.3809 65.0525 45.3809 62.3066C45.3807 57.7921 41.9219 54.0723 37.5156 53.6553V50.8291H62.4863V53.6553C58.0799 54.072 54.6193 57.7916 54.6191 62.3066C54.6191 65.0507 55.9353 67.6617 58.1396 69.291C59.6415 70.408 61.4289 70.998 63.3115 70.998C65.1943 70.998 66.9797 70.4077 68.4775 69.2949C70.6839 67.6638 71.9999 65.0515 72 62.3057C72 57.7909 68.5389 54.0695 64.1328 53.6543L64.1318 53.6572V50.0078C64.1318 49.553 63.7634 49.1846 63.3086 49.1846H36.6924ZM36.6895 65.3037C38.4982 65.3037 40.0411 66.5461 40.46 68.2598C39.3366 68.977 38.0433 69.3555 36.6895 69.3555C35.3358 69.3554 34.0413 68.977 32.916 68.2578V68.2559C33.3348 66.5444 34.8788 65.3039 36.6895 65.3037ZM63.3086 65.3037C65.1173 65.3037 66.6603 66.5462 67.0791 68.2578C65.9558 68.975 64.6625 69.3535 63.3086 69.3535C61.9549 69.3534 60.6625 68.9741 59.5352 68.2549C59.9541 66.5436 61.4981 65.3039 63.3086 65.3037ZM36.6943 55.2617C40.5761 55.2618 43.7363 58.4223 43.7363 62.3086H43.7324C43.7324 64.1046 43.0281 65.8223 41.8203 67.1172C41.3274 65.8945 40.4114 64.8979 39.2607 64.2949C40.0136 63.6011 40.4892 62.609 40.4893 61.5049C40.4893 59.4105 38.7846 57.7053 36.6904 57.7051C34.594 57.7051 32.8906 59.4103 32.8906 61.5049C32.8907 62.607 33.3671 63.5989 34.1201 64.2949C32.9694 64.8999 32.0506 65.8943 31.5576 67.1191C30.3372 65.8265 29.6475 64.1341 29.6475 62.3086C29.6475 58.4243 32.8083 55.2617 36.6943 55.2617ZM63.3115 55.2607C67.1956 55.2608 70.3535 58.4222 70.3535 62.3086C70.3534 64.1047 69.6493 65.8223 68.4414 67.1172H68.4395C67.9465 65.8943 67.0297 64.8979 65.8789 64.2949C66.632 63.601 67.1084 62.6083 67.1084 61.5039C67.1083 59.4095 65.4029 57.7041 63.3086 57.7041C61.2124 57.7043 59.5099 59.4096 59.5098 61.5039C59.5098 62.6061 59.9852 63.5989 60.7383 64.2949C59.5877 64.9 58.6696 65.8943 58.1768 67.1191C56.9562 65.8265 56.2667 64.1341 56.2666 62.3086C56.2666 58.4243 59.4272 55.2607 63.3115 55.2607ZM36.6895 59.3506C37.8761 59.3506 38.8435 60.3172 38.8438 61.5039C38.8438 62.6908 37.8762 63.6582 36.6895 63.6582C35.5029 63.658 34.5361 62.6906 34.5361 61.5039C34.5364 60.3174 35.503 59.3508 36.6895 59.3506ZM63.3086 59.3506C64.4953 59.3506 65.4628 60.3171 65.4629 61.5039C65.4629 62.6908 64.4954 63.6582 63.3086 63.6582C62.122 63.6579 61.1553 62.6906 61.1553 61.5039C61.1554 60.3173 62.1221 59.3508 63.3086 59.3506ZM45.1055 27C44.6506 27 44.2822 27.3684 44.2822 27.8232V28.2354H41.1592C40.7046 28.2356 40.3369 28.6039 40.3369 29.0586V32.3545C40.3369 33.7972 41.5106 34.9695 42.9531 34.9697L42.9502 34.9678H44.5342C45.0376 37.0177 46.2076 38.1032 47.1934 38.666L46.5908 41.2744C45.6411 41.2935 44.8752 42.0675 44.875 43.0215V46.6709C44.875 47.1258 45.2434 47.4941 45.6982 47.4941H54.3096C54.7644 47.4941 55.1328 47.1257 55.1328 46.6709V43.0215C55.1326 42.0675 54.3646 41.2935 53.417 41.2744L52.8145 38.666C53.8024 38.1011 54.9702 37.0176 55.4736 34.9697H57.0576C58.5004 34.9697 59.6748 33.7953 59.6748 32.3545V29.0586C59.6748 28.6037 59.3064 28.2354 58.8516 28.2354H55.7295V27.8232C55.7295 27.3684 55.3611 27 54.9062 27H45.1055ZM53.3838 42.918C53.4407 42.9182 53.4872 42.9645 53.4873 43.0215V45.8477H46.5215V43.0215C46.5216 42.9644 46.5679 42.918 46.625 42.918H53.3838ZM51.7275 41.2705H48.2832L48.7471 39.2646C49.1573 39.3577 49.5764 39.4082 50.0078 39.4082C50.4356 39.4082 50.8548 39.355 51.2637 39.2646L51.7275 41.2705ZM54.082 32.7461C54.082 35.1515 53.2082 36.781 51.5498 37.458C50.5767 37.8642 49.4358 37.8655 48.4521 37.4551C46.8002 36.7801 45.9268 35.1513 45.9268 32.7461V28.6436H54.082V32.7461ZM44.2803 33.3213H42.9521C42.417 33.3213 41.9834 32.8878 41.9834 32.3525V29.8789H44.2803V33.3213ZM58.0293 32.3525C58.0293 32.8877 57.5935 33.3212 57.0605 33.3213H55.7314V29.8789H58.0293V32.3525Z" fill="#008D47"/>
</svg>
