<svg width="100" height="100" viewBox="0 0 100 100" fill="none" xmlns="http://www.w3.org/2000/svg">
<circle cx="50" cy="50" r="50" fill="white"/>
<path d="M50 8C73.196 8 92 26.804 92 50C92 73.196 73.196 92 50 92C26.804 92 8 73.196 8 50C8 26.804 26.804 8 50 8ZM50 10C27.9086 10 10 27.9086 10 50C10 72.0914 27.9086 90 50 90C72.0914 90 90 72.0914 90 50C90 27.9086 72.0914 10 50 10ZM50 13C70.4345 13 87 29.5655 87 50C87 70.4345 70.4345 87 50 87C29.5655 87 13 70.4345 13 50C13 29.5655 29.5655 13 50 13ZM67.082 28.2734C66.144 27.7298 64.9442 28.0224 64.3604 28.9336L50.2061 50.9912L36.0518 28.9336C35.466 28.0224 34.2671 27.7298 33.3291 28.2734C33.0307 28.4456 32.7035 28.6326 32.3994 28.8086C31.9208 29.0843 31.5735 29.546 31.4414 30.082C31.3113 30.6198 31.4036 31.1863 31.7002 31.6533L47.0605 55.8906L42.5684 62.8896C42.3693 63.2017 41.9745 63.3281 41.6299 63.1865L34.457 60.2363C33.0136 59.6448 31.3691 59.8096 30.0732 60.6787C28.7775 61.5478 28.0001 63.0044 28 64.5645V67.3232C28 68.5637 28.4944 69.7522 29.3711 70.6309C30.2479 71.5057 31.4382 72 32.6787 72H38.9404C41.5552 71.9999 43.9886 70.6621 45.3877 68.4531L50.2051 60.8525L55.0234 68.4531C56.4228 70.6621 58.8561 71.9999 61.4707 72H67.7324C68.9729 72 70.1633 71.5057 71.04 70.6309C71.9168 69.7522 72.4111 68.5637 72.4111 67.3232V64.5645C72.4111 63.0044 71.6338 61.5478 70.3379 60.6787C69.0419 59.8096 67.3974 59.6448 65.9541 60.2363L58.7812 63.1865C58.4367 63.3282 58.0419 63.2017 57.8428 62.8896L53.3486 55.8906L68.7109 31.6533C69.0076 31.1862 69.0999 30.6199 68.9697 30.082C68.8376 29.546 68.4913 29.0843 68.0127 28.8086C67.7084 28.6325 67.3806 28.4457 67.082 28.2734ZM30.9268 61.9502C31.7977 61.3683 32.9045 61.2553 33.875 61.6533L41.0479 64.6016C42.0758 65.0247 43.2573 64.6529 43.8584 63.7188L45.1299 61.7363L47.0625 62.9531L44.0957 67.6338C42.9756 69.4007 41.0308 70.4687 38.9404 70.4688H32.6787C31.8441 70.4687 31.0437 70.1375 30.4541 69.5479C29.8629 68.9564 29.5314 68.1586 29.5312 67.3242V64.5654C29.5312 63.5165 30.0559 62.536 30.9268 61.9502ZM66.5371 61.6533C67.5076 61.2552 68.6143 61.3683 69.4854 61.9502C70.3564 62.536 70.8809 63.5164 70.8809 64.5654V67.3242C70.8807 68.1587 70.5475 68.9564 69.958 69.5479C69.3685 70.1374 68.5689 70.4686 67.7344 70.4688H61.4727C59.3822 70.4688 57.4375 69.4007 56.3174 67.6338L53.3496 62.9531L55.2812 61.7363L56.5547 63.7188C57.1558 64.6529 58.3363 65.0245 59.3643 64.6016L66.5371 61.6533ZM49.2988 59.4229L47.8828 61.6592L45.959 60.4473L47.9668 57.3174L49.2988 59.4229ZM34.0957 29.5977C34.3254 29.4656 34.6201 29.5368 34.7637 29.7607L49.5674 52.832L54.4541 60.4473L52.5303 61.6592L32.9932 30.834C32.9205 30.7192 32.8972 30.5793 32.9297 30.4473C32.9623 30.3173 33.0485 30.2027 33.165 30.1357L34.0957 29.5977ZM65.6494 29.7607C65.7929 29.5369 66.0877 29.4658 66.3174 29.5977L67.248 30.1357C67.3647 30.2027 67.4508 30.3173 67.4834 30.4473C67.5159 30.5793 67.4926 30.7191 67.4199 30.834L52.4395 54.4688L51.1162 52.4092L65.6494 29.7607ZM49.3809 28.5254C47.595 28.6155 45.9444 29.5459 45.9443 31.4668C45.9443 33.5679 47.5499 33.9134 49.3809 34.1836V37.8008C48.0453 37.6807 47.2496 37.0501 47.1895 35.9697L45.7939 36.1348C45.884 37.5605 46.6046 39.0464 49.3809 39.2266V39.8564H50.8516V39.2266C53.8682 39.0765 54.6338 37.5301 54.6338 35.9092C54.6336 33.9133 52.8026 33.3134 50.8516 33.0732V29.876C52.0522 29.966 52.6681 30.5819 52.7432 31.4824L54.124 31.3164C53.9588 29.6807 52.7425 28.6601 50.8516 28.54V28H49.3809V28.5254ZM50.8516 34.3486C52.1273 34.5738 53.1035 34.8739 53.1035 35.9395C53.1035 37.0501 52.3074 37.7254 50.8516 37.8154V34.3486ZM49.3809 32.8779C48.2104 32.6978 47.4152 32.4125 47.415 31.5723C47.415 30.5818 48.1953 29.9661 49.3809 29.876V32.8779Z" fill="#008D47"/>
</svg>
